<svg xmlns="http://www.w3.org/2000/svg" width="380" height="500" viewBox="0 0 380 500">
  <defs><filter id="shadow" x="-15%" y="-15%" width="130%" height="140%"><feDropShadow dx="0" dy="3" stdDeviation="4" flood-color="#293a5b" flood-opacity=".12"/></filter></defs>
  <rect width="380" height="500" fill="#f5f8fc"/>
  <text x="20" y="28" font-family="Malgun Gothic, sans-serif" font-size="13" font-weight="700" fill="#24314b">붙임 스타일 적용 · 좁은 창 340px</text>
  <g transform="translate(20 43)" font-family="Malgun Gothic, sans-serif">
    <rect width="340" height="431" rx="11" fill="#ffffff" stroke="#d8e0ec" filter="url(#shadow)"/>
    <g transform="translate(14 13)" font-size="12" text-anchor="middle">
      <rect width="30" height="34" rx="6" fill="#ffffff" stroke="#d8e0ec"/><text x="15" y="22" fill="#24314b">‹</text>
      <rect x="38" width="236" height="34" rx="6" fill="#2f69ec" stroke="#2f69ec"/><text x="156" y="22" fill="#ffffff" font-weight="700">오늘 · 9월 8일 (화)</text>
      <rect x="282" width="30" height="34" rx="6" fill="#ffffff" stroke="#d8e0ec"/><text x="297" y="22" fill="#24314b">›</text>
    </g>
    <g transform="translate(14 58)" font-size="11" text-anchor="middle">
      <rect width="74" height="27" rx="6" fill="#edf2ff" stroke="#9bb4f2"/><rect y="25" width="74" height="2" fill="#2f69ec"/><text x="37" y="18" fill="#2455c4" font-weight="700">당일</text>
      <rect x="79" width="74" height="27" rx="6" fill="#f8fafe" stroke="#d8e0ec"/><text x="116" y="18" fill="#59657d">이번 주</text>
      <rect x="158" width="74" height="27" rx="6" fill="#f8fafe" stroke="#d8e0ec"/><text x="195" y="18" fill="#59657d">임박순</text>
      <rect x="237" width="75" height="27" rx="6" fill="#f8fafe" stroke="#d8e0ec"/><text x="274" y="18" fill="#59657d">우선도순</text>
    </g>
    <line x1="0" y1="98" x2="340" y2="98" stroke="#e4e9f1"/>
    <g transform="translate(14 109)" font-size="12"><rect y="2" width="15" height="15" rx="3" fill="#ffffff" stroke="#8694aa"/><rect x="25" width="40" height="20" rx="4" fill="#fff0f1"/><text x="45" y="14" text-anchor="middle" font-size="10" font-weight="700" fill="#c43a48">D-DAY</text><text x="74" y="14" fill="#24314b">예산 집행 마감</text><text x="312" y="14" text-anchor="end" fill="#8795b0">18:00</text></g>
    <g transform="translate(14 145)" font-size="12"><rect y="2" width="15" height="15" rx="3" fill="#ffffff" stroke="#8694aa"/><rect x="25" width="34" height="20" rx="4" fill="#fff1df"/><text x="42" y="14" text-anchor="middle" font-size="10" font-weight="700" fill="#a06010">D-2</text><text x="68" y="14" fill="#24314b">보고서 제출</text><text x="312" y="14" text-anchor="end" fill="#8795b0">—</text></g>
    <g transform="translate(14 181)" font-size="12"><rect y="2" width="15" height="15" rx="3" fill="#2f69ec" stroke="#2f69ec"/><path d="M3 9l4 4 6-8" fill="none" stroke="#ffffff" stroke-width="2"/><rect x="25" width="34" height="20" rx="4" fill="#eef3ff" opacity=".65"/><text x="42" y="14" text-anchor="middle" font-size="10" font-weight="700" fill="#8fa4cf">D+1</text><text x="68" y="14" fill="#a9b2c3" text-decoration="line-through">정산 확인</text><text x="312" y="14" text-anchor="end" fill="#a9b2c3">—</text></g>
    <g transform="translate(14 217)" font-size="12"><rect y="2" width="15" height="15" rx="3" fill="#ffffff" stroke="#8694aa"/><rect x="25" width="34" height="20" rx="4" fill="#eef3ff"/><text x="42" y="14" text-anchor="middle" font-size="10" font-weight="700" fill="#3155d8">일정</text><text x="68" y="14" fill="#24314b">팀 주간회의</text><text x="312" y="14" text-anchor="end" fill="#8795b0">10:00</text></g>
    <g transform="translate(14 253)" font-size="12"><rect y="2" width="15" height="15" rx="3" fill="#ffffff" stroke="#8694aa"/><rect x="25" width="34" height="20" rx="4" fill="#fff1df"/><text x="42" y="14" text-anchor="middle" font-size="10" font-weight="700" fill="#a06010">할 일</text><text x="68" y="14" fill="#24314b">회의자료 최종 확인</text><text x="312" y="14" text-anchor="end" fill="#8795b0">14:00</text></g>
    <line x1="0" y1="297" x2="340" y2="297" stroke="#e4e9f1"/>
    <text x="14" y="328" font-size="11" fill="#91a0ba">체크하면 삭선 · 설정에서 휴지통으로 바꿀 수 있음</text>
    <text x="14" y="356" font-size="11" fill="#7184a5">최대 8줄 · 9건부터 세로 스크롤</text>
    <rect x="14" y="377" width="312" height="34" rx="7" fill="#f7f9fc"/><text x="170" y="398" text-anchor="middle" font-size="11" fill="#65708a">날짜·보기·체크는 Tab / Enter로 조작</text>
  </g>
</svg>
